<mxfile host="65bd71144e">
    <diagram id="YCNPf9AJdNmabB96Mdi2" name="Página-1">
        <mxGraphModel dx="876" dy="593" grid="1" gridSize="10" guides="1" tooltips="1" connect="1" arrows="1" fold="1" page="1" pageScale="1" pageWidth="827" pageHeight="1169" math="0" shadow="0">
            <root>
                <mxCell id="0"/>
                <mxCell id="1" parent="0"/>
                <mxCell id="2" value="Banco" style="swimlane;fontStyle=1;align=center;verticalAlign=top;childLayout=stackLayout;horizontal=1;startSize=26;horizontalStack=0;resizeParent=1;resizeParentMax=0;resizeLast=0;collapsible=1;marginBottom=0;" vertex="1" parent="1">
                    <mxGeometry x="80" y="50" width="160" height="114" as="geometry"/>
                </mxCell>
                <mxCell id="3" value="- Codigo_Banco : int&#10;- Nombre : string&#10;- Direccion : string&#10;" style="text;strokeColor=none;fillColor=none;align=left;verticalAlign=top;spacingLeft=4;spacingRight=4;overflow=hidden;rotatable=0;points=[[0,0.5],[1,0.5]];portConstraint=eastwest;" vertex="1" parent="2">
                    <mxGeometry y="26" width="160" height="54" as="geometry"/>
                </mxCell>
                <mxCell id="4" value="" style="line;strokeWidth=1;fillColor=none;align=left;verticalAlign=middle;spacingTop=-1;spacingLeft=3;spacingRight=3;rotatable=0;labelPosition=right;points=[];portConstraint=eastwest;strokeColor=inherit;" vertex="1" parent="2">
                    <mxGeometry y="80" width="160" height="8" as="geometry"/>
                </mxCell>
                <mxCell id="5" value="+ Transferir ( )" style="text;strokeColor=none;fillColor=none;align=left;verticalAlign=top;spacingLeft=4;spacingRight=4;overflow=hidden;rotatable=0;points=[[0,0.5],[1,0.5]];portConstraint=eastwest;" vertex="1" parent="2">
                    <mxGeometry y="88" width="160" height="26" as="geometry"/>
                </mxCell>
                <mxCell id="30" style="edgeStyle=none;html=1;exitX=0.5;exitY=0;exitDx=0;exitDy=0;entryX=0.5;entryY=0.999;entryDx=0;entryDy=0;entryPerimeter=0;" edge="1" parent="1" source="6" target="13">
                    <mxGeometry relative="1" as="geometry"/>
                </mxCell>
                <mxCell id="6" value="CuentaAhorros" style="swimlane;fontStyle=1;align=center;verticalAlign=top;childLayout=stackLayout;horizontal=1;startSize=26;horizontalStack=0;resizeParent=1;resizeParentMax=0;resizeLast=0;collapsible=1;marginBottom=0;" vertex="1" parent="1">
                    <mxGeometry x="300" y="250" width="160" height="50" as="geometry"/>
                </mxCell>
                <mxCell id="7" value="-  Cantidad_Retiros : int" style="text;strokeColor=none;fillColor=none;align=left;verticalAlign=top;spacingLeft=4;spacingRight=4;overflow=hidden;rotatable=0;points=[[0,0.5],[1,0.5]];portConstraint=eastwest;" vertex="1" parent="6">
                    <mxGeometry y="26" width="160" height="24" as="geometry"/>
                </mxCell>
                <mxCell id="10" value="Cliente" style="swimlane;fontStyle=1;align=center;verticalAlign=top;childLayout=stackLayout;horizontal=1;startSize=26;horizontalStack=0;resizeParent=1;resizeParentMax=0;resizeLast=0;collapsible=1;marginBottom=0;" vertex="1" parent="1">
                    <mxGeometry x="300" y="50" width="160" height="140" as="geometry"/>
                </mxCell>
                <mxCell id="11" value="- DNI : int&#10;- Nombre : string&#10;- Direccion : string&#10;" style="text;strokeColor=none;fillColor=none;align=left;verticalAlign=top;spacingLeft=4;spacingRight=4;overflow=hidden;rotatable=0;points=[[0,0.5],[1,0.5]];portConstraint=eastwest;" vertex="1" parent="10">
                    <mxGeometry y="26" width="160" height="54" as="geometry"/>
                </mxCell>
                <mxCell id="12" value="" style="line;strokeWidth=1;fillColor=none;align=left;verticalAlign=middle;spacingTop=-1;spacingLeft=3;spacingRight=3;rotatable=0;labelPosition=right;points=[];portConstraint=eastwest;strokeColor=inherit;" vertex="1" parent="10">
                    <mxGeometry y="80" width="160" height="8" as="geometry"/>
                </mxCell>
                <mxCell id="13" value="+ Depositos ( )&#10;+ Retiro ( )&#10;+ ConsultaDeSaldo ( )" style="text;strokeColor=none;fillColor=none;align=left;verticalAlign=top;spacingLeft=4;spacingRight=4;overflow=hidden;rotatable=0;points=[[0,0.5],[1,0.5]];portConstraint=eastwest;" vertex="1" parent="10">
                    <mxGeometry y="88" width="160" height="52" as="geometry"/>
                </mxCell>
                <mxCell id="14" value="Cuenta" style="swimlane;fontStyle=1;align=center;verticalAlign=top;childLayout=stackLayout;horizontal=1;startSize=26;horizontalStack=0;resizeParent=1;resizeParentMax=0;resizeLast=0;collapsible=1;marginBottom=0;" vertex="1" parent="1">
                    <mxGeometry x="520" y="50" width="160" height="80" as="geometry"/>
                </mxCell>
                <mxCell id="15" value="- Numero_Cuenta : int&#10;- Titular : string&#10;- Saldo : decimal" style="text;strokeColor=none;fillColor=none;align=left;verticalAlign=top;spacingLeft=4;spacingRight=4;overflow=hidden;rotatable=0;points=[[0,0.5],[1,0.5]];portConstraint=eastwest;" vertex="1" parent="14">
                    <mxGeometry y="26" width="160" height="54" as="geometry"/>
                </mxCell>
                <mxCell id="32" style="edgeStyle=none;html=1;exitX=0.5;exitY=0;exitDx=0;exitDy=0;" edge="1" parent="1" source="18" target="15">
                    <mxGeometry relative="1" as="geometry"/>
                </mxCell>
                <mxCell id="18" value="CuentaCorriente" style="swimlane;fontStyle=1;align=center;verticalAlign=top;childLayout=stackLayout;horizontal=1;startSize=26;horizontalStack=0;resizeParent=1;resizeParentMax=0;resizeLast=0;collapsible=1;marginBottom=0;" vertex="1" parent="1">
                    <mxGeometry x="520" y="210" width="160" height="50" as="geometry"/>
                </mxCell>
                <mxCell id="19" value="- Limite_Retiro : int" style="text;strokeColor=none;fillColor=none;align=left;verticalAlign=top;spacingLeft=4;spacingRight=4;overflow=hidden;rotatable=0;points=[[0,0.5],[1,0.5]];portConstraint=eastwest;" vertex="1" parent="18">
                    <mxGeometry y="26" width="160" height="24" as="geometry"/>
                </mxCell>
                <mxCell id="24" value="" style="endArrow=diamondThin;endFill=0;endSize=24;html=1;entryX=1;entryY=0.5;entryDx=0;entryDy=0;exitX=0;exitY=0.5;exitDx=0;exitDy=0;" edge="1" parent="1" source="11" target="3">
                    <mxGeometry width="160" relative="1" as="geometry">
                        <mxPoint x="280" y="140" as="sourcePoint"/>
                        <mxPoint x="490" y="310" as="targetPoint"/>
                    </mxGeometry>
                </mxCell>
                <mxCell id="25" value="" style="endArrow=diamondThin;endFill=1;endSize=24;html=1;exitX=0;exitY=0.5;exitDx=0;exitDy=0;entryX=1;entryY=0.5;entryDx=0;entryDy=0;" edge="1" parent="1" source="15" target="11">
                    <mxGeometry width="160" relative="1" as="geometry">
                        <mxPoint x="330" y="310" as="sourcePoint"/>
                        <mxPoint x="500" y="150" as="targetPoint"/>
                    </mxGeometry>
                </mxCell>
            </root>
        </mxGraphModel>
    </diagram>
</mxfile>